<svg data-v-423bf9ae="" xmlns="http://www.w3.org/2000/svg" viewBox="0 0 412.69565111627804 60" class="font"><!----><!----><!----><g data-v-423bf9ae="" id="f5aea4be-a02e-424d-a2d9-91cd20338667" fill="#000000" transform="matrix(5.797101235611727,0,0,5.797101235611727,-0.0000011755298032767314,-17.101448683063346)"><path d="M4.93 6.59L4.42 6.59L4.42 5.94C4.42 4.30 3.77 3.49 2.46 3.49C1.19 3.49 0.49 4.52 0.49 5.94C0.49 6.73 0.80 7.28 1.19 7.64C1.57 8.01 2.02 8.20 2.28 8.32L2.52 8.43C2.76 8.53 3.15 8.67 3.49 8.97C3.82 9.28 4.10 9.76 4.10 10.44C4.10 11.73 3.49 12.47 2.46 12.47C1.36 12.47 0.83 11.83 0.83 10.37L0.83 9.72L1.32 9.72L1.32 10.37C1.32 10.98 1.43 11.41 1.64 11.68C1.68 11.75 1.76 11.80 1.89 11.87C2.02 11.94 2.20 11.98 2.46 11.98C2.97 11.98 3.25 11.73 3.42 11.42C3.57 11.12 3.60 10.72 3.60 10.44C3.60 9.95 3.43 9.63 3.19 9.39C2.95 9.17 2.63 9.02 2.34 8.89L2.09 8.78C1.79 8.65 1.29 8.44 0.84 8.01C0.28 7.46 0 6.78 0 5.94C0 5.05 0.24 4.31 0.69 3.79C1.12 3.29 1.74 2.98 2.46 2.98C3.47 2.98 4.03 3.42 4.33 3.79C4.73 4.31 4.93 5.03 4.93 5.94ZM0 9.72L0.49 9.72L0.49 10.37C0.49 11.98 1.16 12.81 2.46 12.81C3.08 12.81 3.60 12.57 3.93 12.11C4.26 11.70 4.42 11.12 4.42 10.44C4.42 9.65 4.10 9.10 3.72 8.75C3.33 8.40 2.88 8.22 2.65 8.12L2.42 8.02C2.16 7.91 1.76 7.74 1.43 7.41C1.09 7.08 0.83 6.62 0.83 5.94C0.83 5.45 0.92 4.91 1.19 4.51C1.46 4.10 1.86 3.81 2.46 3.81C3.54 3.81 4.10 4.48 4.10 5.94L4.10 6.59L3.60 6.59L3.60 5.94C3.60 5.14 3.42 4.70 3.18 4.51C2.94 4.31 2.65 4.31 2.46 4.31C1.92 4.31 1.65 4.61 1.50 4.97C1.33 5.33 1.32 5.75 1.32 5.94C1.32 6.43 1.48 6.75 1.72 7.00C1.96 7.25 2.28 7.43 2.62 7.56L2.84 7.66C3.11 7.77 3.61 7.95 4.06 8.39C4.63 8.92 4.93 9.60 4.93 10.44C4.93 12.03 4.05 13.30 2.46 13.30C0.83 13.30 0 12.22 0 10.37ZM8.09 2.98L9.14 2.98L11.54 13.30L11.02 13.30L8.76 3.57L8.46 3.57L6.20 13.30L5.70 13.30ZM8.61 4.38L9.81 9.60L7.39 9.60ZM8.61 6.58L8.02 9.10L9.20 9.10ZM7.06 13.30L6.54 13.30L7.32 9.93L9.90 9.93L10.68 13.30L10.18 13.30L9.51 10.43L7.71 10.43ZM17.44 2.97L18.61 2.97L18.61 13.29L18.12 13.29L18.12 3.47L17.82 3.47L15.37 12.03L12.91 3.47L12.61 3.47L12.61 13.29L12.12 13.29L12.12 2.97L13.29 2.97L15.37 10.23ZM13.44 13.29L12.95 13.29L12.95 4.80L15.37 13.23L17.78 4.80L17.78 13.29L17.29 13.29L17.29 8.34L15.86 13.29L14.87 13.29L13.44 8.34ZM23.79 2.98L24.28 2.98L24.28 10.56C24.28 11.41 24.09 12.07 23.72 12.53C23.44 12.91 22.90 13.30 21.97 13.30C21.03 13.30 20.50 12.91 20.22 12.53C19.84 12.07 19.66 11.41 19.66 10.56L19.66 2.98L20.15 2.98L20.15 10.56C20.15 12.03 20.78 12.81 21.97 12.81C22.57 12.81 23.03 12.61 23.32 12.22C23.63 11.84 23.79 11.30 23.79 10.56ZM20.48 2.98L20.97 2.98L20.97 10.56C20.97 11.27 21.13 11.63 21.34 11.80C21.55 11.98 21.78 11.98 21.97 11.98C22.15 11.98 22.39 11.98 22.60 11.80C22.81 11.63 22.96 11.27 22.96 10.56L22.96 2.98L23.45 2.98L23.45 10.56C23.45 11.89 22.97 12.47 21.97 12.47C20.97 12.47 20.48 11.89 20.48 10.56ZM25.82 3.49L25.82 12.81L29.60 12.81L29.60 13.30L25.33 13.30L25.33 2.98L29.60 2.98L29.60 3.49ZM26.15 3.81L29.60 3.81L29.60 4.31L26.64 4.31L26.64 7.48L29.60 7.48L29.60 7.98L26.15 7.98ZM26.15 8.30L29.60 8.30L29.60 8.81L26.64 8.81L26.64 11.98L29.60 11.98L29.60 12.47L26.15 12.47ZM30.53 2.97L31.02 2.97L31.02 12.80L35.03 12.80L35.03 13.29L30.53 13.29ZM35.03 12.46L31.36 12.46L31.36 2.97L31.85 2.97L31.85 11.97L35.03 11.97ZM36.83 5.07L35.52 5.07L35.52 2.95L36.83 2.95ZM36.34 3.46L36.01 3.46L36.01 4.58L36.34 4.58ZM42.66 6.59L42.15 6.59L42.15 5.94C42.15 4.30 41.50 3.49 40.19 3.49C38.92 3.49 38.22 4.52 38.22 5.94C38.22 6.73 38.53 7.28 38.92 7.64C39.30 8.01 39.75 8.20 40.01 8.32L40.25 8.43C40.49 8.53 40.88 8.67 41.22 8.97C41.55 9.28 41.83 9.76 41.83 10.44C41.83 11.73 41.22 12.47 40.19 12.47C39.09 12.47 38.56 11.83 38.56 10.37L38.56 9.72L39.05 9.72L39.05 10.37C39.05 10.98 39.16 11.41 39.37 11.68C39.41 11.75 39.49 11.80 39.62 11.87C39.75 11.94 39.93 11.98 40.19 11.98C40.70 11.98 40.98 11.73 41.15 11.42C41.30 11.12 41.33 10.72 41.33 10.44C41.33 9.95 41.16 9.63 40.92 9.39C40.68 9.17 40.36 9.02 40.07 8.89L39.82 8.78C39.52 8.65 39.02 8.44 38.57 8.01C38.01 7.46 37.73 6.78 37.73 5.94C37.73 5.05 37.97 4.31 38.42 3.79C38.85 3.29 39.47 2.98 40.19 2.98C41.20 2.98 41.76 3.42 42.06 3.79C42.46 4.31 42.66 5.03 42.66 5.94ZM37.73 9.72L38.22 9.72L38.22 10.37C38.22 11.98 38.89 12.81 40.19 12.81C40.81 12.81 41.33 12.57 41.66 12.11C41.99 11.70 42.15 11.12 42.15 10.44C42.15 9.65 41.83 9.10 41.45 8.75C41.06 8.40 40.61 8.22 40.38 8.12L40.15 8.02C39.89 7.91 39.49 7.74 39.16 7.41C38.82 7.08 38.56 6.62 38.56 5.94C38.56 5.45 38.65 4.91 38.92 4.51C39.19 4.10 39.59 3.81 40.19 3.81C41.27 3.81 41.83 4.48 41.83 5.94L41.83 6.59L41.33 6.59L41.33 5.94C41.33 5.14 41.15 4.70 40.91 4.51C40.67 4.31 40.38 4.31 40.19 4.31C39.65 4.31 39.38 4.61 39.23 4.97C39.06 5.33 39.05 5.75 39.05 5.94C39.05 6.43 39.21 6.75 39.45 7.00C39.69 7.25 40.01 7.43 40.35 7.56L40.57 7.66C40.84 7.77 41.34 7.95 41.79 8.39C42.36 8.92 42.66 9.60 42.66 10.44C42.66 12.03 41.78 13.30 40.19 13.30C38.56 13.30 37.73 12.22 37.73 10.37ZM48.09 3.49L48.09 13.30L47.60 13.30L47.60 2.98L51.87 2.98L51.87 3.49ZM48.43 3.81L51.87 3.81L51.87 4.31L48.92 4.31L48.92 7.48L51.87 7.48L51.87 7.98L48.43 7.98ZM48.92 13.30L48.43 13.30L48.43 8.30L51.87 8.30L51.87 8.81L48.92 8.81ZM57.71 10.33C57.71 11.26 57.51 11.96 57.12 12.45C56.97 12.63 56.77 12.84 56.46 12.99C56.15 13.16 55.76 13.27 55.26 13.27C54.25 13.27 53.69 12.82 53.40 12.45C53.00 11.96 52.81 11.26 52.81 10.33L52.81 5.88C52.81 4.97 53.00 4.27 53.40 3.77C53.69 3.39 54.25 2.95 55.26 2.95C56.27 2.95 56.83 3.39 57.12 3.77C57.51 4.27 57.71 4.97 57.71 5.88ZM57.22 5.88C57.22 4.30 56.55 3.44 55.26 3.44C53.97 3.44 53.30 4.30 53.30 5.88L53.30 10.33C53.30 11.91 53.98 12.78 55.26 12.78C56.53 12.78 57.22 11.91 57.22 10.33ZM56.88 10.33C56.88 11.75 56.34 12.45 55.26 12.45C54.18 12.45 53.63 11.75 53.63 10.33L53.63 5.88C53.63 5.15 53.77 4.62 54.05 4.28C54.31 3.95 54.71 3.78 55.26 3.78C55.80 3.78 56.21 3.95 56.46 4.28C56.74 4.62 56.88 5.15 56.88 5.88ZM56.39 5.88C56.39 5.08 56.21 4.66 55.97 4.47C55.73 4.27 55.44 4.27 55.26 4.27C55.05 4.27 54.78 4.27 54.54 4.47C54.31 4.66 54.12 5.08 54.12 5.88L54.12 10.33C54.12 11.16 54.31 11.55 54.54 11.75C54.78 11.94 55.05 11.96 55.26 11.96C55.44 11.96 55.73 11.94 55.97 11.75C56.21 11.55 56.39 11.16 56.39 10.33ZM58.48 2.97L58.97 2.97L58.97 12.80L62.97 12.80L62.97 13.29L58.48 13.29ZM62.97 12.46L59.30 12.46L59.30 2.97L59.79 2.97L59.79 11.97L62.97 11.97ZM63.88 13.29L63.88 2.97L64.37 2.97L64.37 13.29ZM65.20 13.29L64.71 13.29L64.71 2.97L65.20 2.97ZM71.19 10.33C71.19 11.26 70.99 11.96 70.60 12.45C70.45 12.63 70.25 12.84 69.94 12.99C69.64 13.16 69.24 13.27 68.74 13.27C67.73 13.27 67.17 12.82 66.88 12.45C66.49 11.96 66.29 11.26 66.29 10.33L66.29 5.88C66.29 4.97 66.49 4.27 66.88 3.77C67.17 3.39 67.73 2.95 68.74 2.95C69.75 2.95 70.31 3.39 70.60 3.77C70.99 4.27 71.19 4.97 71.19 5.88ZM70.70 5.88C70.70 4.30 70.03 3.44 68.74 3.44C67.45 3.44 66.78 4.30 66.78 5.88L66.78 10.33C66.78 11.91 67.47 12.78 68.74 12.78C70.01 12.78 70.70 11.91 70.70 10.33ZM70.36 10.33C70.36 11.75 69.82 12.45 68.74 12.45C67.66 12.45 67.12 11.75 67.12 10.33L67.12 5.88C67.12 5.15 67.26 4.62 67.54 4.28C67.79 3.95 68.19 3.78 68.74 3.78C69.29 3.78 69.69 3.95 69.94 4.28C70.22 4.62 70.36 5.15 70.36 5.88ZM69.87 5.88C69.87 5.08 69.69 4.66 69.45 4.47C69.22 4.27 68.92 4.27 68.74 4.27C68.53 4.27 68.26 4.27 68.03 4.47C67.79 4.66 67.61 5.08 67.61 5.88L67.61 10.33C67.61 11.16 67.79 11.55 68.03 11.75C68.26 11.94 68.53 11.96 68.74 11.96C68.92 11.96 69.22 11.94 69.45 11.75C69.69 11.55 69.87 11.16 69.87 10.33Z"></path></g><!----><!----></svg>